<svg width="1807" height="306" viewBox="0 0 1807 306" fill="none" xmlns="http://www.w3.org/2000/svg">
<path d="M276.017 94.9502H240.797V161.051C247.621 153.185 253.723 144.676 258.999 135.627C263.51 127.904 267.422 119.789 270.67 111.343C269.202 119.691 267.057 127.807 264.294 135.627C259.091 150.353 251.696 164.04 242.503 176.303C241.943 177.05 241.372 177.793 240.797 178.532C234.761 186.291 227.989 193.448 220.588 199.904C208.997 210.024 195.865 218.418 181.589 224.693C176.365 226.993 170.992 229.007 165.484 230.712C153.313 234.492 140.496 236.786 127.234 237.389C124.876 237.501 122.507 237.556 120.121 237.556C118.587 237.556 117.062 237.536 115.543 237.484C106.095 237.211 96.8589 236.077 87.916 234.153C82.046 232.898 76.3053 231.304 70.7081 229.389C48.4343 221.787 28.478 209.185 12.1719 192.925C24.3713 219.768 45.014 241.961 70.7081 256.117C76.222 259.158 81.9714 261.826 87.916 264.092C96.7239 267.446 105.968 269.916 115.543 271.386C119.388 271.978 123.285 272.414 127.234 272.675C130.293 272.882 133.377 272.986 136.49 272.986C146.441 272.986 156.142 271.92 165.484 269.898C170.986 268.709 176.362 267.19 181.589 265.355C195.81 260.381 208.96 253.118 220.588 244.003C227.974 238.219 234.746 231.692 240.797 224.529V272.986H290.422V94.9502H276.017Z" fill="#006AFF"/>
<path d="M181.594 135.627V204.812C192.653 199.932 203.086 193.893 212.739 186.848C215.418 184.893 218.037 182.862 220.593 180.76V94.9502H181.594V135.627Z" fill="#5CD026"/>
<path d="M127.238 176.303V218.508C140.477 217.462 153.286 214.883 165.488 210.943V135.627H127.238V176.303Z" fill="#5CD026"/>
<path d="M87.9219 213.892V217.04C90.3256 217.416 92.7408 217.735 95.1761 218.005C101.307 218.685 107.542 219.033 113.854 219.033C114.423 219.033 114.986 219.03 115.549 219.024V176.3H87.9219V213.889V213.892Z" fill="#5CD026"/>
<path d="M70.7127 199.904C64.0472 192.995 58.4673 185.037 54.2342 176.304C48.3987 164.271 45.1248 150.765 45.1248 136.495C45.1248 136.204 45.1248 135.914 45.1277 135.63C45.2655 120.99 48.8381 107.179 55.09 94.9537C59.2082 86.8954 64.4895 79.5321 70.7127 73.082C75.8504 67.7547 81.6256 63.0478 87.9206 59.0933C90.712 57.3358 93.604 55.7304 96.5878 54.2802C102.573 51.3682 108.919 49.0937 115.547 47.54C119.358 46.644 123.261 45.9864 127.239 45.5901C130.283 45.2828 133.37 45.1248 136.495 45.1248C146.626 45.1248 156.379 46.7733 165.488 49.8231C169.236 51.0781 172.883 52.5686 176.401 54.2802H245.454C243.958 52.2958 242.41 50.3544 240.802 48.4561C234.754 41.2938 227.979 34.7662 220.593 28.9824C208.965 19.8672 195.815 12.6073 181.593 7.63041C176.367 5.79532 170.988 4.27613 165.488 3.0872C156.146 1.06544 146.445 0 136.495 0C133.384 0 130.297 0.103381 127.239 0.310152C123.29 0.571487 119.393 1.00513 115.547 1.5996C105.973 3.06997 96.7285 5.53973 87.9206 8.89401C81.976 11.1599 76.2266 13.8278 70.7127 16.869C53.8121 26.1823 39.0912 38.9734 27.535 54.2802C18.3538 66.4193 11.1627 80.138 6.43573 94.9566C2.33765 107.794 0.0890247 121.458 0.00287024 135.633C-1.57747e-06 135.923 0 136.21 0 136.497C0 150.345 2.06196 163.714 5.89871 176.307C6.3783 177.889 6.88948 179.463 7.42651 181.022C25.6999 196.007 47.1954 207.216 70.7127 213.445V199.907V199.904Z" fill="#006AFF"/>
<path d="M587.894 224.053H604.822V228.708C593.819 232.188 583.286 235.009 573.224 237.172C563.161 239.335 553.569 240.886 544.447 241.827C535.419 242.861 526.814 243.378 518.633 243.378C501.705 243.378 486.141 241.169 471.941 236.749C457.835 232.329 445.609 225.652 435.265 216.718C425.014 207.784 417.021 196.687 411.284 183.427C405.642 170.167 402.82 154.744 402.82 137.158C402.82 116.939 407.71 99.1656 417.491 83.8368C427.365 68.4139 441.048 56.4236 458.54 47.8658C476.032 39.214 496.298 34.8881 519.338 34.8881C529.4 34.8881 538.428 35.5464 546.422 36.8629C554.51 38.0855 562.268 39.7782 569.697 41.9412L552.77 44.3393L572.095 29.1045H574.211L588.459 103.162L584.227 104.15L548.82 48.1479L569.415 70.0126C560.857 61.3608 552.206 54.8249 543.46 50.4049C534.714 45.985 525.357 43.775 515.388 43.775C506.548 43.775 498.273 45.2797 490.561 48.289C482.85 51.2983 476.032 56.1415 470.107 62.8184C464.277 69.4954 459.716 78.3823 456.424 89.4793C453.133 100.576 451.487 114.259 451.487 130.528C451.487 153.098 454.778 172.189 461.361 187.8C467.944 203.317 476.69 215.119 487.599 223.207C498.508 231.294 510.404 235.338 523.288 235.338C527.237 235.338 530.999 235.056 534.573 234.492C538.24 233.833 541.626 232.94 544.729 231.811C547.927 230.589 550.795 229.178 553.334 227.579L543.178 238.018V161.562L516.235 154.65V149.713H605.809V154.65L587.894 160.716V224.053Z" fill="black"/>
<path d="M693.575 235.056C700.628 235.056 706.411 232.752 710.925 228.144C715.439 223.536 718.731 216.436 720.8 206.843C722.963 197.251 724.044 185.073 724.044 170.308C724.044 154.885 723.01 142.002 720.941 131.657C718.872 121.312 715.58 113.554 711.066 108.382C706.646 103.115 700.863 100.482 693.716 100.482C686.662 100.482 680.879 102.786 676.365 107.394C671.851 112.002 668.512 119.102 666.349 128.695C664.186 138.287 663.105 150.465 663.105 165.23C663.105 180.559 664.139 193.442 666.208 203.881C668.277 214.226 671.522 222.031 675.942 227.297C680.456 232.47 686.333 235.056 693.575 235.056ZM692.305 243.378C678.293 243.378 665.832 240.181 654.923 233.786C644.015 227.391 635.41 218.551 629.109 207.266C622.902 195.887 619.799 182.816 619.799 168.051C619.799 153.098 623.09 139.933 629.673 128.554C636.256 117.081 645.19 108.147 656.475 101.752C667.854 95.3569 680.644 92.1594 694.844 92.1594C709.138 92.1594 721.74 95.3569 732.649 101.752C743.558 108.052 752.068 116.892 758.181 128.271C764.388 139.556 767.491 152.628 767.491 167.487C767.491 182.439 764.106 195.652 757.335 207.125C750.658 218.504 741.63 227.391 730.251 233.786C718.966 240.181 706.317 243.378 692.305 243.378Z" fill="black"/>
<path d="M918.851 104.15L863.414 242.109H842.537L779.058 105.701L763.118 100.059V95.545H843.101V100.2L825.045 104.855L872.583 214.743L865.107 217.141L907.284 104.15L889.369 100.2V95.545H934.086V100.2L918.851 104.15Z" fill="black"/>
<path d="M1077.62 94.9807C1077.62 85.2004 1075.74 76.9247 1071.98 70.1537C1068.22 63.2887 1062.06 58.0693 1053.5 54.4958C1045.04 50.9222 1033.75 49.1354 1019.65 49.1354H987.202L988.613 38.2736H1048.99C1066.86 38.2736 1081.24 40.7657 1092.15 45.7499C1103.16 50.7341 1111.2 57.411 1116.27 65.7808C1121.35 74.1505 1123.89 83.5076 1123.89 93.8522C1123.89 104.291 1121.26 113.93 1115.99 122.77C1110.82 131.516 1102.69 138.522 1091.59 143.788C1080.59 148.961 1066.39 151.547 1048.99 151.547H988.613L987.202 140.685H1031.21C1040.24 140.685 1048.24 138.945 1055.19 135.466C1062.25 131.986 1067.75 126.861 1071.7 120.09C1075.65 113.319 1077.62 104.949 1077.62 94.9807ZM1013.44 38.2736V229.131L1036.57 235.338V239.993H943.191V235.338L966.325 229.131V48.9943L943.191 42.9286V38.2736H1013.44Z" fill="black"/>
<path d="M1238.02 92.7237C1242.91 92.7237 1246.76 94.2284 1249.59 97.2377C1252.5 100.153 1253.96 104.056 1253.96 108.946C1253.96 115.059 1251.98 120.231 1248.03 124.463C1244.08 128.601 1239.19 130.67 1233.36 130.67C1230.07 130.67 1227.11 130.387 1224.48 129.823C1221.84 129.165 1219.21 128.507 1216.58 127.848C1213.94 127.19 1210.93 126.861 1207.55 126.861C1204.82 126.861 1202.28 127.237 1199.93 127.989C1197.67 128.742 1195.46 129.823 1193.3 131.234C1191.23 132.644 1189.12 134.478 1186.95 136.735L1186.81 130.246C1194.43 121.783 1200.82 115.059 1206 110.074C1211.26 105.09 1215.73 101.376 1219.4 98.9305C1223.16 96.3913 1226.45 94.7456 1229.27 93.9933C1232.19 93.1469 1235.1 92.7237 1238.02 92.7237ZM1190.62 231.247L1210.23 235.761V239.993H1132.79V235.761L1149.57 231.247V126.297C1148.35 125.168 1146.99 123.993 1145.48 122.77C1143.98 121.547 1142.1 119.949 1139.84 117.974C1137.58 115.999 1134.71 113.46 1131.23 110.357V106.83L1188.79 91.172H1190.62V231.247Z" fill="black"/>
<path d="M1328.96 92.1594C1340.15 92.1594 1349.75 94.4164 1357.74 98.9305C1365.73 103.35 1372.03 109.839 1376.64 118.397C1381.25 126.861 1383.98 137.205 1384.82 149.431H1290.03V139.274H1365.5L1347.16 145.763C1346.41 134.666 1345.09 125.873 1343.21 119.385C1341.42 112.802 1338.98 108.1 1335.88 105.278C1332.77 102.363 1328.92 100.905 1324.31 100.905C1318.48 100.905 1313.45 102.645 1309.22 106.125C1305.08 109.604 1301.93 115.153 1299.76 122.77C1297.6 130.387 1296.52 140.356 1296.52 152.675C1296.52 167.628 1298.35 179.712 1302.02 188.928C1305.69 198.144 1311.1 204.868 1318.24 209.1C1325.39 213.238 1334.14 215.307 1344.48 215.307C1349.65 215.307 1354.54 214.696 1359.15 213.473C1363.76 212.251 1368.18 210.276 1372.41 207.549C1376.74 204.821 1380.83 201.295 1384.68 196.969L1387.65 199.367C1381.35 210.37 1375 219.069 1368.6 225.464C1362.21 231.858 1355.48 236.466 1348.43 239.288C1341.47 242.015 1333.81 243.378 1325.44 243.378C1312.08 243.378 1300.23 240.557 1289.89 234.915C1279.54 229.272 1271.46 221.044 1265.63 210.229C1259.8 199.32 1256.88 186.107 1256.88 170.59C1256.88 156.484 1259.66 143.506 1265.2 131.657C1270.75 119.714 1278.89 110.168 1289.61 103.021C1300.33 95.7801 1313.45 92.1594 1328.96 92.1594Z" fill="black"/>
<path d="M1477.83 92.1594C1488.83 92.1594 1497.67 93.335 1504.35 95.686C1511.12 98.0371 1516.01 101.046 1519.02 104.714C1522.03 108.288 1523.53 112.049 1523.53 115.999C1523.53 119.29 1522.73 122.206 1521.13 124.745C1519.63 127.19 1517.61 129.071 1515.07 130.387C1512.62 131.704 1509.85 132.362 1506.74 132.362C1505.8 132.362 1504.35 131.328 1502.37 129.259C1500.49 127.096 1498.23 124.463 1495.6 121.359C1492.97 118.256 1490.01 115.153 1486.71 112.049C1483.52 108.852 1480.18 106.219 1476.7 104.15C1473.22 101.987 1469.69 100.905 1466.12 100.905C1460.76 100.905 1456.01 102.504 1451.87 105.701C1447.73 108.899 1444.49 114.118 1442.14 121.359C1439.88 128.507 1438.75 138.052 1438.75 149.995C1438.75 165.7 1440.49 178.396 1443.97 188.082C1447.55 197.674 1452.72 204.633 1459.49 208.959C1466.26 213.191 1474.58 215.307 1484.46 215.307C1492.17 215.307 1499.22 213.99 1505.62 211.357C1512.01 208.63 1518.08 204.022 1523.81 197.533L1526.78 200.072C1520.66 210.887 1514.5 219.445 1508.3 225.746C1502.09 232.046 1495.55 236.56 1488.69 239.288C1481.92 242.015 1474.44 243.378 1466.26 243.378C1453.19 243.378 1441.57 240.557 1431.42 234.915C1421.35 229.178 1413.46 220.903 1407.72 210.088C1401.98 199.179 1399.11 185.966 1399.11 170.449C1399.11 159.164 1401.09 148.773 1405.04 139.274C1409.08 129.682 1414.68 121.359 1421.82 114.306C1429.07 107.253 1437.44 101.799 1446.93 97.943C1456.53 94.0873 1466.82 92.1594 1477.83 92.1594ZM1455.26 305.587C1448.49 305.587 1443.69 304.506 1440.87 302.343C1438.14 300.274 1436.78 297.735 1436.78 294.725C1436.78 292.656 1437.34 290.823 1438.47 289.224C1439.6 287.625 1441.34 286.826 1443.69 286.826C1444.44 286.826 1445.81 287.813 1447.78 289.788C1449.85 291.763 1452.25 293.738 1454.97 295.713C1457.8 297.782 1460.76 298.816 1463.86 298.816C1467.53 298.816 1470.54 297.782 1472.89 295.713C1475.33 293.644 1476.56 290.917 1476.56 287.531C1476.56 285.368 1475.8 283.252 1474.3 281.183C1472.8 279.208 1469.88 277.281 1465.55 275.4C1461.23 273.519 1454.88 271.732 1446.51 270.039V269.334L1472.47 235.338H1480.37L1457.37 264.961L1462.03 251.419C1471.06 253.582 1477.83 255.98 1482.34 258.613C1486.95 261.246 1490.05 264.021 1491.65 266.936C1493.25 269.945 1494.05 273.049 1494.05 276.246C1494.05 281.7 1492.22 286.638 1488.55 291.058C1484.97 295.572 1480.22 299.098 1474.3 301.637C1468.38 304.27 1462.03 305.587 1455.26 305.587Z" fill="black"/>
<path d="M1610.03 235.056C1617.08 235.056 1622.87 232.752 1627.38 228.144C1631.89 223.536 1635.19 216.436 1637.25 206.843C1639.42 197.251 1640.5 185.073 1640.5 170.308C1640.5 154.885 1639.46 142.002 1637.39 131.657C1635.33 121.312 1632.03 113.554 1627.52 108.382C1623.1 103.115 1617.32 100.482 1610.17 100.482C1603.12 100.482 1597.33 102.786 1592.82 107.394C1588.31 112.002 1584.97 119.102 1582.8 128.695C1580.64 138.287 1579.56 150.465 1579.56 165.23C1579.56 180.559 1580.59 193.442 1582.66 203.881C1584.73 214.226 1587.98 222.031 1592.4 227.297C1596.91 232.47 1602.79 235.056 1610.03 235.056ZM1608.76 243.378C1594.75 243.378 1582.29 240.181 1571.38 233.786C1560.47 227.391 1551.86 218.551 1545.56 207.266C1539.36 195.887 1536.25 182.816 1536.25 168.051C1536.25 153.098 1539.54 139.933 1546.13 128.554C1552.71 117.081 1561.64 108.147 1572.93 101.752C1584.31 95.3569 1597.1 92.1594 1611.3 92.1594C1625.59 92.1594 1638.19 95.3569 1649.1 101.752C1660.01 108.052 1668.52 116.892 1674.64 128.271C1680.84 139.556 1683.95 152.628 1683.95 167.487C1683.95 182.439 1680.56 195.652 1673.79 207.125C1667.11 218.504 1658.08 227.391 1646.71 233.786C1635.42 240.181 1622.77 243.378 1608.76 243.378Z" fill="black"/>
<path d="M1758.55 92.1594C1765.98 92.1594 1772.52 92.7707 1778.16 93.9933C1783.89 95.2158 1789.72 97.0966 1795.65 99.6358L1801.01 138.71H1796.5L1775.05 100.341L1787.33 112.755C1782.15 107.864 1777.26 104.432 1772.66 102.457C1768.14 100.388 1763.06 99.3536 1757.42 99.3536C1749.24 99.3536 1742.99 100.999 1738.66 104.291C1734.33 107.488 1732.17 112.284 1732.17 118.679C1732.17 122.253 1732.97 125.497 1734.57 128.413C1736.17 131.328 1739.41 134.243 1744.3 137.158C1749.29 139.98 1756.86 143.083 1767.01 146.469C1774.54 149.008 1780.84 151.876 1785.92 155.073C1791.09 158.271 1795.18 161.844 1798.19 165.794C1801.2 169.744 1803.36 174.07 1804.68 178.772C1805.99 183.474 1806.65 188.552 1806.65 194.007C1806.65 203.693 1803.97 212.251 1798.61 219.68C1793.35 227.109 1786.15 232.94 1777.03 237.172C1767.91 241.31 1757.52 243.378 1745.85 243.378C1737.2 243.378 1729.68 242.673 1723.28 241.263C1716.98 239.852 1711.34 237.877 1706.36 235.338L1698.46 190.339H1703.54L1729.21 235.902L1721.17 228.003C1723.71 229.789 1726.39 231.294 1729.21 232.517C1732.12 233.645 1735.09 234.539 1738.1 235.197C1741.2 235.761 1744.3 236.043 1747.41 236.043C1755.49 236.043 1762.41 233.927 1768.14 229.695C1773.97 225.464 1776.89 219.022 1776.89 210.37C1776.89 206.984 1776.28 203.928 1775.05 201.201C1773.93 198.474 1772 195.887 1769.27 193.442C1766.64 190.997 1763.02 188.646 1758.41 186.389C1753.9 184.132 1748.16 181.922 1741.2 179.759C1731.98 176.75 1724.55 173.223 1718.91 169.18C1713.27 165.136 1709.18 160.481 1706.64 155.214C1704.1 149.854 1702.83 143.741 1702.83 136.876C1702.83 127.66 1705.28 119.714 1710.17 113.037C1715.15 106.36 1721.83 101.234 1730.2 97.6609C1738.66 93.9933 1748.11 92.1594 1758.55 92.1594Z" fill="black"/>
</svg>
