<svg width="130" height="130" viewBox="0 0 130 130" fill="none" xmlns="http://www.w3.org/2000/svg">
<rect x="0.793866" y="0.793866" width="127.838" height="127.838" rx="26.2028" fill="url(#paint0_linear_42_405)"/>
<rect x="0.793866" y="0.793866" width="127.838" height="127.838" rx="26.2028" fill="url(#paint1_linear_42_405)"/>
<rect x="0.793866" y="0.793866" width="127.838" height="127.838" rx="26.2028" stroke="url(#paint2_linear_42_405)" stroke-width="1.58805"/>
<path d="M49.5865 80.2415C46.4393 77.489 41.7185 69.2315 42.5053 61.3673C45.2591 48.3913 57.4544 42.6897 69.2564 42.6897C81.0583 42.6897 86.7626 47.4082 87.156 47.6048L91.2867 39.3474C89.3197 38.1677 83.6154 34.2356 70.6333 33.056C62.7653 32.8594 45.6525 35.8085 36.801 45.8354C32.2769 51.1437 29.9165 56.6487 30.3099 63.7265C30.9 76.8992 39.3581 81.4211 49.5865 83.5838V80.2415Z" fill="#F7F8F8"/>
<path d="M51.752 72.5742V83.5842C53.7189 83.7808 59.4232 83.9774 58.4397 83.7808H57.8496L58.0463 72.5742H51.752Z" fill="white"/>
<path d="M60.7988 64.5127V83.5835L69.6503 81.6174V64.5127H60.7988Z" fill="white"/>
<path d="M73.3867 54.0928V79.8482L77.5174 77.6855L82.4349 73.5568V54.0928H73.3867Z" fill="white"/>
<path d="M98.5663 55.0762H86.961V70.0182C90.1082 67.4624 92.4686 61.9574 93.4521 61.171C94.6323 60.3845 94.4356 62.154 94.0422 62.9404C93.6488 63.7268 89.9115 74.7368 78.8964 81.0282C70.8317 85.9434 61.9802 87.7128 57.4562 87.3196C48.8014 87.123 45.2608 85.7468 41.7202 83.9773C37.1961 81.618 31.0985 76.7029 30.7051 72.3775C31.8853 84.5671 42.1136 94.2008 56.6694 95.9703C61.9802 96.7567 67.6845 96.3635 72.7987 95.1839C78.503 93.611 83.8138 91.0551 88.5346 86.5332C88.928 91.6449 89.1247 94.0042 89.1247 94.0042H99.1564L98.5663 55.0762Z" fill="#F7F8F8"/>
<defs>
<linearGradient id="paint0_linear_42_405" x1="1.58789" y1="1.58789" x2="60.1457" y2="153.868" gradientUnits="userSpaceOnUse">
<stop stop-color="#007BFF"/>
<stop offset="1" stop-color="#ABC5FF"/>
</linearGradient>
<linearGradient id="paint1_linear_42_405" x1="1.58789" y1="1.58789" x2="60.1457" y2="153.868" gradientUnits="userSpaceOnUse">
<stop stop-color="#007BFF"/>
<stop offset="1" stop-color="#001F3E"/>
</linearGradient>
<linearGradient id="paint2_linear_42_405" x1="1.58789" y1="1.58789" x2="127.838" y2="127.838" gradientUnits="userSpaceOnUse">
<stop stop-color="#D5E0F6"/>
<stop offset="1" stop-color="#047EEF"/>
</linearGradient>
</defs>
</svg>
