<svg width="1149" height="1080" viewBox="0 0 1149 1080" fill="none" xmlns="http://www.w3.org/2000/svg">
<path d="M1092 375.648H952.658V637.159C979.653 606.039 1003.8 572.375 1024.67 536.574C1042.52 506.023 1057.99 473.915 1070.84 440.5C1065.04 473.529 1056.55 505.637 1045.62 536.574C1025.03 594.837 995.775 648.986 959.406 697.5C957.191 700.454 954.93 703.397 952.658 706.317C928.776 737.016 901.985 765.329 872.706 790.87C826.85 830.908 774.894 864.118 718.415 888.943C697.749 898.044 676.491 906.008 654.699 912.757C606.549 927.709 555.842 936.787 503.374 939.173C494.046 939.616 484.673 939.832 475.232 939.832C469.164 939.832 463.131 939.752 457.121 939.548C419.741 938.468 383.203 933.98 347.823 926.368C324.599 921.403 301.888 915.097 279.744 907.519C191.623 877.445 112.671 827.59 48.1602 763.261C96.4243 869.458 178.091 957.26 279.744 1013.26C301.558 1025.29 324.304 1035.85 347.823 1044.81C382.669 1058.08 419.242 1067.85 457.121 1073.67C472.334 1076.01 487.752 1077.74 503.374 1078.77C515.474 1079.59 527.677 1080 539.993 1080C579.361 1080 617.74 1075.78 654.699 1067.79C676.468 1063.08 697.737 1057.07 718.415 1049.81C774.678 1030.13 826.703 1001.4 872.706 965.338C901.928 942.456 928.719 916.631 952.658 888.295V1080H1148.99V375.648H1092Z" fill="white"/>
<path d="M718.43 536.574V810.287C762.183 790.983 803.46 767.09 841.646 739.22C852.247 731.482 862.608 723.45 872.72 715.133V375.648H718.43V536.574Z" fill="white"/>
<path d="M503.387 697.5V864.47C555.764 860.334 606.436 850.131 654.712 834.543V536.574H503.387V697.5Z" fill="white"/>
<path d="M347.836 846.213V858.665C357.346 860.153 366.901 861.414 376.535 862.482C400.792 865.175 425.458 866.55 450.431 866.55C452.681 866.55 454.908 866.539 457.135 866.516V697.489H347.836V846.201V846.213Z" fill="white"/>
<path d="M279.757 790.87C253.386 763.534 231.311 732.051 214.564 697.5C191.477 649.895 178.525 596.462 178.525 540.006C178.525 538.858 178.525 537.711 178.536 536.586C179.082 478.664 193.215 424.026 217.95 375.66C234.242 343.779 255.136 314.648 279.757 289.13C300.083 268.054 322.931 249.433 347.835 233.788C358.879 226.834 370.32 220.483 382.125 214.746C405.802 203.225 430.912 194.227 457.134 188.08C472.211 184.535 487.651 181.933 503.387 180.365C515.431 179.15 527.644 178.525 540.006 178.525C580.089 178.525 618.673 185.046 654.712 197.112C669.539 202.077 683.969 207.974 697.887 214.746H971.076C965.157 206.895 959.033 199.214 952.671 191.704C928.743 163.368 901.941 137.544 872.719 114.661C826.716 78.5996 774.691 49.8774 718.428 30.1878C697.75 22.9277 676.47 16.9174 654.712 12.2137C617.753 4.21516 579.374 0 540.006 0C527.701 0 515.487 0.409002 503.387 1.22704C487.765 2.26094 472.347 3.97655 457.134 6.3284C419.255 12.1455 382.682 21.9165 347.835 35.1869C324.317 44.1512 301.571 54.7061 279.757 66.7381C212.894 103.584 154.654 154.188 108.935 214.746C72.612 262.771 44.1625 317.046 25.4613 375.671C9.24833 426.458 0.352204 480.516 0.0113554 536.597C-6.24086e-06 537.745 0 538.881 0 540.017C0 594.803 8.15763 647.691 23.3367 697.512C25.2341 703.772 27.2565 709.998 29.3811 716.167C101.675 775.452 186.717 819.797 279.757 844.44V790.881V790.87Z" fill="white"/>
</svg>
